<svg width="33" height="44" viewBox="0 0 33 44" fill="none" xmlns="http://www.w3.org/2000/svg">
<g filter="url(#filter0_d)">
<path d="M16.501 0C8.77302 0 2.48499 6.28799 2.48499 14.016C2.48499 21.496 15.309 38.9359 15.861 39.672C16.013 39.88 16.245 40 16.501 40C16.757 40 16.997 39.88 17.149 39.672C17.693 38.9359 30.525 21.496 30.525 14.016C30.525 6.28799 24.237 0 16.501 0Z" fill="white"/>
<path d="M16.2647 39.377L16.2647 39.3769L16.261 39.372C15.9908 39.0117 12.657 34.4817 9.39324 29.1132C7.76114 26.4286 6.15254 23.5441 4.95354 20.8722C3.74677 18.1829 2.98499 15.7731 2.98499 14.016C2.98499 6.56413 9.04916 0.5 16.501 0.5C23.961 0.5 30.025 6.56432 30.025 14.016C30.025 15.773 29.2628 18.1828 28.0554 20.8721C26.8558 23.544 25.2464 26.4286 23.6138 29.1132C20.3493 34.4813 17.0155 39.0114 16.7469 39.3748L16.7453 39.377C16.6886 39.4546 16.5994 39.5 16.501 39.5C16.4081 39.5 16.3247 39.459 16.2647 39.377Z" stroke="#E99F27"/>
</g>
<path d="M10.3282 10C10.2588 10.0001 10.1903 10.0152 10.1265 10.0442C10.0627 10.0732 10.0051 10.1156 9.95698 10.1689C7.34767 12.9536 7.34768 17.4832 9.95698 20.2678C10.0036 20.3245 10.0606 20.3704 10.1245 20.4027C10.1884 20.435 10.2578 20.4529 10.3284 20.4554C10.3991 20.4579 10.4695 20.4449 10.5352 20.4172C10.6009 20.3895 10.6607 20.3477 10.7107 20.2944C10.7607 20.2411 10.7999 20.1774 10.826 20.1073C10.852 20.0372 10.8643 19.9621 10.8621 19.8867C10.8598 19.8113 10.8431 19.7372 10.813 19.669C10.7828 19.6007 10.7399 19.5398 10.6868 19.49C8.47246 17.1269 8.47454 13.312 10.6889 10.9488C10.7872 10.8468 10.8435 10.7074 10.8455 10.5612C10.8474 10.4149 10.7949 10.2738 10.6993 10.1689C10.6512 10.1156 10.5936 10.0732 10.5298 10.0442C10.4661 10.0152 10.3975 10.0001 10.3282 10ZM22.7563 10C22.687 10.0001 22.6184 10.0152 22.5546 10.0442C22.4909 10.0732 22.4332 10.1156 22.3851 10.1689C22.2896 10.2738 22.237 10.4149 22.239 10.5612C22.241 10.7074 22.2973 10.8468 22.3956 10.9488C24.6099 13.312 24.61 17.1269 22.3956 19.49C22.3448 19.5406 22.3041 19.6016 22.2759 19.6693C22.2477 19.7371 22.2326 19.8102 22.2315 19.8843C22.2304 19.9584 22.2433 20.032 22.2694 20.1007C22.2955 20.1693 22.3344 20.2317 22.3836 20.284C22.4328 20.3363 22.4914 20.3775 22.5558 20.405C22.6203 20.4326 22.6893 20.4461 22.7587 20.4446C22.8282 20.4431 22.8966 20.4266 22.96 20.3963C23.0233 20.3659 23.0803 20.3222 23.1275 20.2678C25.7368 17.4832 25.7368 12.9536 23.1275 10.1689C23.0794 10.1156 23.0217 10.0732 22.958 10.0442C22.8942 10.0152 22.8256 10.0001 22.7563 10ZM11.9588 11.3346C11.89 11.3347 11.8219 11.3496 11.7585 11.3782C11.6951 11.4069 11.6378 11.4488 11.5897 11.5014C9.66997 13.5502 9.66997 16.8865 11.5897 18.9353C11.6363 18.9921 11.6934 19.038 11.7572 19.0702C11.8211 19.1025 11.8906 19.1204 11.9612 19.1229C12.0318 19.1254 12.1022 19.1124 12.168 19.0847C12.2337 19.057 12.2934 19.0152 12.3434 18.9619C12.3935 18.9086 12.4327 18.8449 12.4587 18.7748C12.4848 18.7047 12.497 18.6296 12.4948 18.5542C12.4926 18.4788 12.4759 18.4047 12.4457 18.3365C12.4156 18.2683 12.3727 18.2074 12.3196 18.1575C10.7948 16.5302 10.7948 13.9086 12.3196 12.2813C12.4179 12.1793 12.4742 12.0399 12.4761 11.8936C12.4781 11.7474 12.4255 11.6063 12.33 11.5014C12.2818 11.4485 12.224 11.4065 12.1603 11.3778C12.0965 11.3491 12.028 11.3344 11.9588 11.3346ZM21.1256 11.3346C21.0565 11.3344 20.988 11.3491 20.9242 11.3778C20.8604 11.4065 20.8027 11.4485 20.7545 11.5014C20.6589 11.6063 20.6064 11.7474 20.6083 11.8936C20.6103 12.0399 20.6666 12.1793 20.7649 12.2813C22.2897 13.9086 22.2897 16.5302 20.7649 18.1575C20.7118 18.2074 20.6689 18.2683 20.6387 18.3365C20.6086 18.4047 20.5919 18.4788 20.5897 18.5542C20.5874 18.6296 20.5997 18.7047 20.6257 18.7748C20.6518 18.8449 20.691 18.9086 20.741 18.9619C20.791 19.0152 20.8508 19.057 20.9165 19.0847C20.9823 19.1124 21.0526 19.1254 21.1233 19.1229C21.1939 19.1204 21.2633 19.1025 21.3272 19.0702C21.3911 19.038 21.4481 18.9921 21.4947 18.9353C23.4145 16.8865 23.4145 13.5502 21.4947 11.5014C21.4467 11.4488 21.3893 11.4069 21.326 11.3782C21.2626 11.3496 21.1945 11.3347 21.1256 11.3346ZM19.5179 12.665C19.4487 12.6648 19.3802 12.6795 19.3165 12.7082C19.2527 12.7369 19.195 12.7789 19.1467 12.8318V12.8339C19.0512 12.9388 18.9986 13.0799 19.0006 13.2261C19.0025 13.3724 19.0589 13.5118 19.1571 13.6138C19.9924 14.505 19.9924 15.9316 19.1571 16.823C19.109 16.8743 19.0709 16.9352 19.0448 17.0022C19.0187 17.0692 19.0053 17.1411 19.0053 17.2137C19.0052 17.2862 19.0186 17.3581 19.0446 17.4252C19.0706 17.4922 19.1087 17.5532 19.1567 17.6045C19.2048 17.6559 19.2619 17.6966 19.3247 17.7244C19.3875 17.7522 19.4548 17.7666 19.5228 17.7666C19.5908 17.7666 19.6582 17.7524 19.721 17.7246C19.7839 17.6969 19.841 17.6562 19.8891 17.6049C21.1192 16.2922 21.1192 14.1446 19.8891 12.8318C19.8408 12.7789 19.7831 12.7369 19.7193 12.7082C19.6556 12.6795 19.5871 12.6648 19.5179 12.665ZM13.5687 12.667C13.4995 12.6669 13.431 12.6816 13.3672 12.7103C13.3035 12.7389 13.2457 12.781 13.1975 12.8339C11.9673 14.1467 11.9652 16.2922 13.1954 17.6049C13.2926 17.7085 13.4243 17.7667 13.5616 17.7666C13.699 17.7665 13.8307 17.7082 13.9277 17.6045C14.0248 17.5008 14.0793 17.3602 14.0792 17.2137C14.0791 17.0671 14.0245 16.9266 13.9273 16.823C13.0921 15.9316 13.0921 14.505 13.9273 13.6138C14.0256 13.5118 14.0819 13.3724 14.0839 13.2261C14.0858 13.0799 14.0333 12.9388 13.9377 12.8339C13.8897 12.7812 13.8324 12.7394 13.769 12.7107C13.7056 12.6821 13.6375 12.6672 13.5687 12.667ZM16.5401 12.9736C15.3673 12.9736 14.4049 13.934 14.4048 15.1068C14.4048 16.0941 15.0909 16.9244 16.0063 17.165V25.7812H17.074V17.165C17.9894 16.9244 18.6755 16.0941 18.6755 15.1068C18.6754 13.934 17.7129 12.9736 16.5401 12.9736ZM16.5401 14.0412C17.1359 14.0412 17.6078 14.5109 17.6078 15.1068C17.6078 15.7027 17.136 16.1745 16.5401 16.1745C15.9443 16.1745 15.4725 15.7027 15.4725 15.1068C15.4725 14.5109 15.9443 14.0412 16.5401 14.0412Z" fill="#E99F27"/>
<defs>
<filter id="filter0_d" x="0.484985" y="0" width="32.04" height="44" filterUnits="userSpaceOnUse" color-interpolation-filters="sRGB">
<feFlood flood-opacity="0" result="BackgroundImageFix"/>
<feColorMatrix in="SourceAlpha" type="matrix" values="0 0 0 0 0 0 0 0 0 0 0 0 0 0 0 0 0 0 127 0"/>
<feOffset dy="2"/>
<feGaussianBlur stdDeviation="1"/>
<feColorMatrix type="matrix" values="0 0 0 0 0 0 0 0 0 0 0 0 0 0 0 0 0 0 0.1 0"/>
<feBlend mode="normal" in2="BackgroundImageFix" result="effect1_dropShadow"/>
<feBlend mode="normal" in="SourceGraphic" in2="effect1_dropShadow" result="shape"/>
</filter>
</defs>
</svg>
